<svg id="Layer_1" data-name="Layer 1" xmlns="http://www.w3.org/2000/svg" viewBox="0 0 239.51 239.52"><defs><style>.cls-1{fill:#fff;}.cls-2{fill:#f2f2f2;}</style></defs><path class="cls-1" d="M161,168.5a33.6,33.6,0,0,1,7.41,5.78,34,34,0,0,1-21.8,10.23c-.86.07-1.74.1-2.62.1a33.78,33.78,0,0,1-24.42-10.33A34,34,0,0,1,161,168.5Z" transform="translate(-24.25 -44.67)"/><path class="cls-1" d="M112.14,162.56c-.2-.54-.39-1.08-.56-1.63a3.68,3.68,0,0,1-.16-.54c-.09-.25-.16-.49-.23-.73s-.13-.49-.19-.74-.12-.46-.17-.7c-.1-.46-.21-.92-.28-1.38,0-.26-.1-.51-.13-.76a6.46,6.46,0,0,1-.11-.75c-.06-.27-.08-.54-.12-.81s0-.52-.07-.78c-.06-.53-.08-1.05-.12-1.57,0-.22,0-.43,0-.65s0-.63,0-.94a34,34,0,1,1,68.08,0c0,.31,0,.62,0,.93s0,.44,0,.66c0,.52-.06,1.05-.12,1.57,0,.26,0,.52-.07.78s-.06.52-.11.78a6.35,6.35,0,0,1-.12.78c0,.26-.08.51-.13.76s-.08.41-.12.62-.09.48-.15.72-.06.27-.1.41a5.73,5.73,0,0,1-.14.56c-.07.26-.13.51-.2.76l-.22.72a0,0,0,0,0,0,0,7.32,7.32,0,0,1-.25.75c-.06.21-.14.42-.2.63l-.16.39,0,.14h0c-.28-.25-.55-.49-.84-.73l-.33-.3c-.13-.1-.25-.19-.36-.29a.9.9,0,0,0-.1-.09l0,0L174,161l-.22-.18a3.92,3.92,0,0,0-.32-.25.53.53,0,0,0-.11-.09l-.16-.13-.72-.54c-.45-.34-.91-.67-1.39-1l-.33-.23-.22-.14c-.33-.23-.66-.45-1-.66l-.54-.34c-.27-.18-.56-.34-.84-.51l-.18-.1-.37-.21c-.2-.12-.39-.23-.61-.34l-.27-.16-.57-.3-.11-.06-.77-.39a2.59,2.59,0,0,0-.29-.14,2.53,2.53,0,0,0-.33-.16l-.51-.25-.19-.09-.8-.35-.47-.2-.57-.24a4.69,4.69,0,0,0-.45-.18c-.17-.07-.32-.14-.51-.2,0,0,0,0-.05,0l-.2-.07-.81-.3h0l-1-.33-.06,0-.24-.08-.47-.15-.33-.1-.31-.09-.74-.22h0l-.75-.2c-.45-.13-.93-.25-1.39-.36-.67-.15-1.32-.29-2-.41l-.11,0-1-.18c-.53-.09-1.08-.17-1.63-.23l-.47-.07-.53,0H149c-.53-.06-1.09-.11-1.63-.14-1.09-.08-2.21-.12-3.33-.12s-2.2,0-3.31.12c-.56,0-1.13.08-1.69.15s-1.05.11-1.57.18l-1.08.17c-.35.06-.71.11-1,.18-1.44.26-2.86.6-4.25,1l-1.05.31-.8.25-1.26.43-.81.3a42.55,42.55,0,0,0-4.21,1.84l-.67.33c-.43.21-.83.44-1.25.66l-.74.42c-.69.39-1.36.81-2,1.24l-.92.59c-.59.41-1.2.83-1.77,1.27-.24.18-.48.36-.7.54s-.7.54-1,.82-.56.46-.83.7l-.55.49-.28.24Z" transform="translate(-24.25 -44.67)"/><path class="cls-1" d="M144,44.67A119.76,119.76,0,1,0,263.75,164.43,119.75,119.75,0,0,0,144,44.67ZM144,232a34,34,0,0,0,16.67-4.35,34.56,34.56,0,0,1-12.3-12.43l-.06-.12.06-.12a34.67,34.67,0,0,1,29.9-17.25,34.3,34.3,0,0,1,13.15,2.6l.15.06v.17a47.66,47.66,0,0,1-45,45c-.86,0-1.73.07-2.6.07a47.66,47.66,0,0,1-41.33-71.34,47.67,47.67,0,0,1-6.3-23.7V83.24H110v34a47.64,47.64,0,0,1,81.67,33.34,47.74,47.74,0,0,1-2.38,14.93,46.65,46.65,0,0,1-4,8.89A47.64,47.64,0,0,1,112.14,186,33.71,33.71,0,0,0,110,198,34.08,34.08,0,0,0,144,232Z" transform="translate(-24.25 -44.67)"/><path class="cls-2" d="M175.86,162.56h0l0-.14S175.87,162.52,175.86,162.56Zm0,0h0l0-.14S175.87,162.52,175.86,162.56Zm0,0h0l0-.14S175.87,162.52,175.86,162.56Zm0,0h0l0-.14S175.87,162.52,175.86,162.56Zm0,0h0l0-.14S175.87,162.52,175.86,162.56Zm0,0h0l0-.14S175.87,162.52,175.86,162.56Zm0,0h0l0-.14S175.87,162.52,175.86,162.56Zm0,0h0l0-.14S175.87,162.52,175.86,162.56Zm0,0h0l0-.14S175.87,162.52,175.86,162.56Zm0,0h0l0-.14S175.87,162.52,175.86,162.56Zm0,0h0l0-.14S175.87,162.52,175.86,162.56Zm0,0h0l0-.14S175.87,162.52,175.86,162.56Zm0,0h0l0-.14S175.87,162.52,175.86,162.56Zm0,0h0l0-.14S175.87,162.52,175.86,162.56Zm0,0h0l0-.14S175.87,162.52,175.86,162.56Zm0,0h0l0-.14S175.87,162.52,175.86,162.56Zm0,0h0l0-.14S175.87,162.52,175.86,162.56Zm0,0h0l0-.14S175.87,162.52,175.86,162.56Zm0,0h0l0-.14S175.87,162.52,175.86,162.56Z" transform="translate(-24.25 -44.67)"/></svg>